# AST/ASF file generated using VICON BodyLanguage
# -----------------------------------------------
:version 1.10
:name VICON
:units
  mass 1.0
  length 0.45
  angle deg
:documentation
   .ast/.asf automatically generated from VICON data using
   VICON BodyBuilder and BodyLanguage model FoxedUp or BRILLIANT.MOD
:root
   order TX TY TZ RX RY RZ
   axis XYZ
   position 0 0 0  
   orientation 0 0 0 
:bonedata
  begin
     id 1 
     name lhipjoint
     direction 0.547975 -0.797114 0.253638 
     length 2.36201 
     axis 0 0 0  XYZ
  end
  begin
     id 2 
     name lfemur
     direction 0.34202 -0.939693 0  
     length 7.69075  
     axis 0 0 20  XYZ
    dof rx ry rz
    limits (-160.0 20.0)
           (-70.0 70.0)
           (-60.0 70.0)
  end
  begin
     id 3 
     name ltibia
     direction 0.34202 -0.939693 0   
     length 7.91399   
     axis 0 0 20   XYZ
    dof rx
    limits (-10.0 170.0)
  end
  begin
     id 4 
     name lfoot
     direction 0.0705293 -0.193778 0.978507   
     length 2.13618   
     axis -90 7.62852e-016 20   XYZ
    dof rx rz
    limits (-45.0 90.0)
           (-70.0 20.0)
  end
  begin
     id 5 
     name ltoes
     direction 1.53592e-011 -4.21925e-011 1   
     length 1.07518   
     axis -90 7.62852e-016 20   XYZ
    dof rx
    limits (-90.0 20.0)
  end
  begin
     id 6 
     name rhipjoint
     direction -0.57 -0.782963 0.249136   
     length 2.4047  
     axis 0 0 0  XYZ 
  end
  begin
     id 7 
     name rfemur
     direction -0.34202 -0.939693 0   
     length 7.51486   
     axis 0 0 -20   XYZ
    dof rx ry rz
    limits (-160.0 20.0)
           (-70.0 70.0)
           (-70.0 60.0)
  end
  begin
     id 8 
     name rtibia
     direction -0.34202 -0.939693 0   
     length 8.08317   
     axis 0 0 -20   XYZ
    dof rx
    limits (-10.0 170.0)
 end
 begin
     id 9 
     name rfoot
     direction -0.104954 -0.281256 0.953876   
     length 2.30343  
     axis -90 -7.62852e-016 -20   XYZ
    dof rx rz
    limits (-45.0 90.0)
           (-20.0 70.0)
  end
  begin
     id 10 
     name rtoes
     direction -1.53556e-011 -4.21922e-011 1   
     length 1.14803   
     axis -90 -7.62852e-016 -20   XYZ
    dof rx
    limits (-90.0 20.0)
  end
  begin
     id 11 
     name lowerback
     direction -0.0152855 0.99353 -0.11254   
     length 2.05311   
     axis 0 0 0   XYZ
    dof rx ry rz
    limits (-20.0 45.0)
           (-30.0 30.0)
           (-30.0 30.0)
  end
  begin
     id 12 
     name upperback
     direction -0.00157509 0.999443 -0.033332   
     length 2.06353   
     axis 0 0 0   XYZ
    dof rx ry rz
    limits (-20.0 45.0)
           (-30.0 30.0)
           (-30.0 30.0)
  end
  begin
     id 13 
     name thorax
     direction 0.00577788 0.999804 0.0189484   
     length 2.08472   
     axis 0 0 0   XYZ
    dof rx ry rz
    limits (-20.0 45.0)
           (-30.0 30.0)
           (-30.0 30.0)
  end
  begin
     id 14 
     name lowerneck
     direction -1.09301e-005 0.994719 0.10264   
     length 1.76249   
     axis 0 0 0   XYZ
    dof rx ry rz
    limits (-20.0 45.0)
           (-30.0 30.0)
           (-30.0 30.0)
  end
  begin
     id 15 
     name upperneck
     direction 0.0495018 0.988526 -0.142706   
     length 1.77897   
     axis 0 0 0   XYZ
    dof rx ry rz
    limits (-20.0 45.0)
           (-30.0 30.0)
           (-30.0 30.0)
  end
  begin
     id 16
     name head
     direction 0.0142736 0.998114 -0.0597101  
     length 1.78934  
     axis 0 0 0   XYZ
    dof rx ry rz
    limits (-20.0 45.0)
           (-30.0 30.0)
           (-30.0 30.0)
  end
  begin
     id 17 
     name lclavicle
     direction 0.918111 0.396107 -0.0130883  
     length 3.37276  
     axis 0 0 0   XYZ
    dof ry rz
    limits (-20.0 10.0)
           (0.0 20.0)
  end
  begin
     id 18 
     name lhumerus
     direction 1 -4.48975e-011 -3.26108e-027   
     length 5.34298   
     axis 180 -30 -90   XYZ
    dof rx ry rz
    limits (-60.0 90.0)
           (-90.0 90.0)
           (-90.0 90.0)
  end
  begin
     id 19
     name lradius
     direction 1 -4.48964e-011 -8.84413e-028   
     length 3.67262   
     axis 180 -30 -90   XYZ
    dof rx
    limits (-10.0 170.0)
  end
  begin
     id 20
     name lwrist
     direction 1 -4.48991e-011 -1.24264e-027   
     length 1.83631   
     axis -2.17013e-015 90 90   XYZ
    dof ry
    limits (-180.0 0.0)
 end
  begin
     id 21 
     name lhand
     direction 1 -4.48855e-011 -2.48528e-027   
     length 0.599298   
     axis 1.58582e-015 90 90   XYZ
    dof rx rz
    limits (-90.0 90.0)
           (-45.0 45.0)
  end
  begin
     id 22 
     name lfingers
     direction 1 -4.48811e-011 -4.97056e-027   
     length 0.48317   
     axis 3.17164e-015 90 90   XYZ
    dof rx
    limits (0.0 90.0)
  end
  begin
     id 23
     name lthumb
     direction 0.707107 -6.34882e-011 0.707107   
     length 0.693738   
     axis -90 45 2.85299e-015   XYZ
    dof rx rz
    limits (-45.0 45.0)
           (-45.0 45.0)
  end
  begin
     id 24 
     name rclavicle
     direction -0.920511 0.384752 -0.0680135   
     length 3.43787  
     axis 0 0 0   XYZ 
    dof ry rz
    limits (-10.0 20.0)
           (-20.0 0.0)
  end
  begin
     id 25 
     name rhumerus
     direction -0.999976 -0.00330524 0.00603274  
     length 5.5498   
     axis 180 30 90   XYZ
    dof rx ry rz
    limits (-90.0 60.0)
           (-90.0 90.0)
           (-90.0 90.0)
  end
  begin
     id 26 
     name rradius
     direction -1 -4.48967e-011 8.62438e-027   
     length 3.69401   
     axis 180 30 90   XYZ
    dof rx
    limits (-10.0 170.0)
  end
  begin
     id 27 
     name rwrist
     direction -1 -4.4897e-011 9.54866e-027   
     length 1.84701   
     axis -7.69462e-015 -90 -90   XYZ
    dof ry
    limits (-180.0 0.0)
  end
  begin
     id 28
     name rhand
     direction -1 -4.48982e-011 1.90973e-026   
     length 0.638113   
     axis -1.21857e-014 -90 -90   XYZ
    dof rx rz
    limits (-90.0 90.0)
           (-45.0 45.0)
  end
  begin
     id 29
     name rfingers
     direction -1 -4.48936e-011 3.81946e-026   
     length 0.514463   
     axis -2.43714e-014 -90 -90   XYZ
    dof rx
    limits (0.0 90.0)
  end
  begin
     id 30
     name rthumb
     direction -0.707107 -6.34942e-011 0.707107   
     length 0.738669   
     axis -90 -45 -2.85299e-015   XYZ
    dof rx rz
    limits (-45.0 45.0)
           (-45.0 45.0)
  end
:hierarchy
  begin
    root lhipjoint rhipjoint lowerback
    lhipjoint lfemur
    lfemur ltibia
    ltibia lfoot
    lfoot ltoes
    rhipjoint rfemur
    rfemur rtibia
    rtibia rfoot
    rfoot rtoes
    lowerback upperback
    upperback thorax
    thorax lowerneck lclavicle rclavicle
    lowerneck upperneck
    upperneck head
    lclavicle lhumerus
    lhumerus lradius
    lradius lwrist
    lwrist lhand lthumb
    lhand lfingers
    rclavicle rhumerus
    rhumerus rradius
    rradius rwrist
    rwrist rhand rthumb
    rhand rfingers
  end

#!OML:ASF F:\twosubjects\two\Thursday\Session 1\Rory.ASF
:FULLY-SPECIFIED
:DEGREES
32
root -2.78919 18.686 18.4114 -174.398 20.2576 -182.689
lowerback 3.14081 2.32566 -6.43218
upperback 2.33872 3.23361 -3.62952
thorax 0.523985 1.68329 -0.22814
lowerneck -11.0221 -14.0042 -7.56078
upperneck 27.4688 -21.0621 14.4916
head 13.639 -7.83789 3.54409
rclavicle -1.86858e-014 6.75868e-014
rhumerus -18.2307 -15.627 -76.0673
rradius 44.5762
rwrist 1.15677
rhand -24.335 23.5551
rfingers 7.12502
rthumb 2.1538 -6.41373
lclavicle -1.86858e-014 6.75868e-014
lhumerus -34.62 19.8657 65.5375
lradius 18.8561
lwrist -31.1033
lhand -8.47144 30.8764
lfingers 7.12502
lthumb 17.4552 60.1127
rfemur -13.8287 5.16687 14.0447
rtibia 58.7196
rfoot -2.82555 -7.36702
rtoes 4.75592
lfemur -16.9634 1.50833 -17.6434
ltibia 23.536
lfoot -8.61793 2.9786
ltoes -11.8231
33
root -2.79613 18.7022 18.2787 -174.33 20.5098 -182.713
lowerback 3.16623 2.06998 -6.28247
upperback 2.04423 2.84746 -3.52806
thorax 0.221339 1.49152 -0.202134
lowerneck -10.462 -13.785 -8.33035
upperneck 27.8864 -20.586 14.424
head 13.7167 -7.71698 3.77798
rclavicle -1.07344e-014 1.27222e-014
rhumerus -18.0329 -15.0291 -75.9037
rradius 44.1734
rwrist 0.828238
rhand -23.6771 24.0472
rfingers 7.12502
rthumb 2.78917 -5.91432
lclavicle -1.07344e-014 1.27222e-014
lhumerus -34.9488 18.5146 66.4139
lradius 20.0286
lwrist -28.5957
lhand -8.36856 31.1245
lfingers 7.12502
lthumb 17.5542 60.3519
rfemur -15.0289 4.02537 13.9419
rtibia 59.4922
rfoot -2.86007 -7.74417
rtoes 10.4308
lfemur -16.5148 1.39496 -17.8353
ltibia 23.4257
lfoot -8.87313 3.30403
ltoes -12.5951
34
root -2.79998 18.7108 18.1504 -174.29 20.6489 -182.461
lowerback 3.16547 1.66109 -6.03457
upperback 1.80375 2.25202 -3.17697
thorax -0.0095979 1.18558 0.0377611
lowerneck -9.53861 -13.3847 -9.37487
upperneck 28.1112 -19.784 14.3754
head 13.6139 -7.52304 4.14209
rclavicle 9.34288e-015 -8.74653e-015
rhumerus -17.6837 -13.967 -75.7877
rradius 43.7999
rwrist 0.455974
rhand -23.4891 24.5368
rfingers 7.12502
rthumb 2.97075 -5.4223
lclavicle 9.34288e-015 -8.74653e-015
lhumerus -35.7884 17.9229 67.0992
lradius 21.4463
lwrist -26.3897
lhand -8.21982 31.8924
lfingers 7.12502
lthumb 17.6973 61.1071
rfemur -16.0654 2.98403 14.2748
rtibia 60.1213
rfoot -2.96639 -8.11331
rtoes 8.45709
lfemur -15.973 1.43426 -17.757
ltibia 23.4072
lfoot -9.23325 3.46103
ltoes -13.5971
35
root -2.8006 18.7179 18.0267 -174.307 20.8316 -182.37
lowerback 3.22298 1.12657 -6.19556
upperback 1.43643 1.46064 -2.61411
thorax -0.40582 0.781663 0.727423
lowerneck -8.02725 -12.7048 -10.8662
upperneck 28.0196 -18.5245 14.4502
head 13.233 -7.21273 4.73289
rclavicle -4.96962e-015 3.81667e-014
rhumerus -17.4257 -12.0653 -75.5114
rradius 43.5439
rwrist -0.00857051
rhand -23.7365 23.9688
rfingers 7.12502
rthumb 2.73181 -5.99348
lclavicle -4.96962e-015 3.81667e-014
lhumerus -37.0438 17.9325 67.7514
lradius 22.7181
lwrist -24.6891
lhand -8.53833 32.4942
lfingers 7.12502
lthumb 17.3908 61.7362
rfemur -17.1012 2.09039 14.4752
rtibia 60.6522
rfoot -3.87041 -7.99946
rtoes 3.33126
lfemur -15.4879 1.5856 -17.8482
ltibia 23.3733
lfoot -9.34849 3.60358
ltoes -15.2596
36
root -2.80339 18.7138 17.9096 -174.444 21.1612 -182.618
lowerback 3.56947 0.988894 -6.54522
upperback 1.19329 1.20923 -2.42281
thorax -0.847177 0.66476 1.11823
lowerneck -7.17642 -12.4181 -11.4614
upperneck 27.8077 -18.0316 14.5808
head 12.9639 -7.09787 5.01091
rclavicle -1.8487e-014 2.38542e-015
rhumerus -17.2202 -11.3996 -75.1545
rradius 43.3162
rwrist -0.305024
rhand -24.2628 22.9614
rfingers 7.12502
rthumb 2.22357 -7.00681
lclavicle -1.8487e-014 2.38542e-015
lhumerus -37.1593 16.9488 68.7078
lradius 23.7678
lwrist -23.0744
lhand -8.73425 32.9824
lfingers 7.12502
lthumb 17.2022 62.241
rfemur -18.2095 1.17618 14.2761
rtibia 61.0979
rfoot -4.97582 -7.89018
rtoes -0.0878849
lfemur -15.0648 1.82868 -18.3178
ltibia 23.3619
lfoot -9.25624 4.00382
ltoes -17.5113
37
root -2.80338 18.7116 17.7939 -174.398 21.6421 -182.682
lowerback 3.67338 1.10172 -6.58006
upperback 1.20856 1.35066 -2.42712
thorax -0.899718 0.736747 1.12447
lowerneck -7.12585 -12.5616 -11.5694
upperneck 27.6832 -18.2812 14.7842
head 12.9839 -7.20897 5.05917
rclavicle -2.16675e-014 3.57812e-014
rhumerus -16.6086 -11.8398 -74.9245
rradius 42.9351
rwrist -0.496221
rhand -24.3854 22.7209
rfingers 7.12502
rthumb 2.10512 -7.24845
lclavicle -2.16675e-014 3.57812e-014
lhumerus -36.4418 15.6064 69.6825
lradius 24.8191
lwrist -21.6472
lhand -8.98347 33.0649
lfingers 7.12502
lthumb 16.9623 62.3442
rfemur -19.461 0.508385 14.3033
rtibia 61.3632
rfoot -6.10272 -8.02356
rtoes -1.89635
lfemur -14.7388 2.17693 -18.6102
ltibia 23.4132
lfoot -9.46768 4.64035
ltoes -18.7987
